<mxfile host="app.diagrams.net" modified="2023-06-26T09:39:54.202Z" agent="Mozilla/5.0 (Windows NT 10.0; Win64; x64; rv:109.0) Gecko/20100101 Firefox/114.0" version="21.5.0" etag="QFX4G6LZIURksh7tf5O7" type="github">
  <diagram name="Page-1" id="62_Rj3nAA5C6USkC9Q8B">
    <mxGraphModel>
      <root>
        <mxCell id="0" />
        <mxCell id="1" parent="0" />
      </root>
    </mxGraphModel>
  </diagram>
</mxfile>
